<?xml version="1.0" encoding="utf-8"?>
<!-- Generator: Adobe Illustrator 23.0.3, SVG Export Plug-In . SVG Version: 6.00 Build 0)  -->
<svg version="1.1" id="图层_1" xmlns="http://www.w3.org/2000/svg" xmlns:xlink="http://www.w3.org/1999/xlink" x="0px" y="0px"
	 viewBox="0 0 351.8 191.4" style="enable-background:new 0 0 351.8 191.4;" xml:space="preserve">
<style type="text/css">
	.st0{fill-rule:evenodd;clip-rule:evenodd;fill:#1C2D55;}
	.st1{fill:#1C2D55;}
</style>
<title>logo(noInfo)</title>
<path class="st0" d="M238.4,0.9c0.8,0,1.4,0.6,1.4,1.4v4.8c0,0.8-0.6,1.4-1.4,1.4l0,0L124.5,7.8c-0.8,0-1.4-0.6-1.4-1.4V1.5
	c0-0.8,0.6-1.4,1.4-1.4l0,0L238.4,0.9z"/>
<path class="st0" d="M207.9,151.5c0.7-0.5,1.1-1.4,1.2-2.2l0.3-43.3c0.1-0.9,0.4-1.7,1-2.4l18.3-18.3c0.6-0.5,0.6-1.4,0-2l0,0
	l-3.4-3.4c-0.6-0.5-1.4-0.5-2,0l-20.5,20.5l-1,1l0,0c0,0,0,0.6,0,1.4l-0.3,42.5c-0.1,0.9-0.5,1.7-1.2,2.2l-19.8,13.9
	c-0.7,0.5-1.7,0.6-2.5,0.3l-12.7-5c-0.8-0.4-1.3-1.1-1.4-1.9l-1.1-52c0-0.5,0-0.9-0.1-1.4c0,0-0.5-0.4-1.1-0.9l-24.5-21.4
	c-0.6-0.5-1.5-0.4-2,0.1l-3.2,3.6c-0.5,0.6-0.4,1.5,0.1,2l22.1,19.2c0.6,0.6,1,1.5,1.1,2.4l1.1,53.6c0.1,0.8,0.6,1.6,1.3,1.9
	l21.3,8.5c0.8,0.3,1.7,0.2,2.5-0.3L207.9,151.5z"/>
<path class="st0" d="M238.6,45c0,12.9,10.4,23.4,23.4,23.5c12.9,0,23.4-10.4,23.5-23.4c0-12.9-10.4-23.4-23.3-23.5
	C249.2,21.6,238.7,32,238.6,45L238.6,45z M246,45.2c0-8.9,7.2-16.1,16.1-16c8.9,0,16.1,7.2,16,16.1s-7.2,16.1-16.1,16l0,0
	C253.1,61.2,246,54,246,45.2z"/>
<path class="st0" d="M76.2,44.8c0,12.9,10.5,23.4,23.4,23.4S123,57.7,123,44.8s-10.5-23.4-23.4-23.4l0,0
	C86.6,21.4,76.2,31.8,76.2,44.8z M83.5,44.9c0-8.9,7.2-16.1,16.1-16.1s16.1,7.2,16.1,16.1S108.5,61,99.6,61S83.5,53.8,83.5,44.9
	L83.5,44.9L83.5,44.9z"/>
<path class="st0" d="M214,83.9c0,0,36.7,4,63.8,7s40.7-21.2,42.8-35.6c2.4-16.9-3-31.2-16.1-41.9s-51-11.6-64.9-12.6
	S197,17.9,192.9,49.7S214,83.9,214,83.9z M200.3,49.4c3.6-26.4,28.8-41.4,41-40.5s45.4,1.5,57,10.4S314.6,40,312.5,54
	c-1.8,11.9-13.8,32-37.5,29.5s-56-5.8-56-5.8S196.7,75.7,200.3,49.4z"/>
<path class="st0" d="M169.7,48.9C165.6,17.1,136.9-1,123,0S71.3,1.9,58.2,12.6S39.6,37.6,42,54.5c2.1,14.4,15.7,38.6,42.8,35.6
	s63.8-7,63.8-7S173.8,80.8,169.7,48.9z M143.7,76.9c0,0-32.2,3.3-56,5.8S52,65.2,50.2,53.3c-2.1-14,2.6-25.8,14.2-34.7
	s44.7-9.6,57-10.4s37.4,14.2,41,40.5S143.7,77,143.7,76.9L143.7,76.9z"/>
<path class="st1" d="M0,191.4c19.4-17.9,34.8-37.3,59.4-52.9c37.7-23.8,61.2,10.8,109.4,34.3c17.1,8.3,34.6,14.8,45.8,16.1
	c-28.4,3.7-49.5-2.5-66.1-8.8c-48.3-18.4-79-47.1-135.6,3.1C3.3,189.5,0,191.4,0,191.4z"/>
<path class="st1" d="M250.4,126.1c-24.1,15.1-38.4,36.1-65.1,47.6c5.4,2.3,11.2,4.3,16.5,6c24-11.7,40.4-33.3,66.9-41.8
	c30.5-10.5,54.3,14.2,80.7,22.3l2.5,0.7C323.9,144.4,291.4,101.7,250.4,126.1z"/>
</svg>
