<svg id="图层_1" data-name="图层 1" xmlns="http://www.w3.org/2000/svg" viewBox="0 0 653.83 104.9"><defs><style>.cls-1,.cls-2{fill:#1657a7;}.cls-1{fill-rule:evenodd;}</style></defs><title>logo(base-horizontal)</title><path class="cls-1" d="M168.84,20.45a1.43,1.43,0,0,1,1.42,1.42V23a1.42,1.42,0,0,1-1.42,1.41l-58.22-.37a1.44,1.44,0,0,1-1.42-1.43V21.49a1.41,1.41,0,0,1,1.42-1.41Z" transform="translate(-44.85 -18.74)"/><path class="cls-1" d="M153,99.63a3.09,3.09,0,0,0,1.17-2.24l.16-21.28a4,4,0,0,1,1-2.42l8.6-8.6a1.43,1.43,0,0,0,0-2l-.83-.82a1.42,1.42,0,0,0-2,0L151.38,72l-1,1h0s0,.64,0,1.42l-.15,20.88A3.11,3.11,0,0,1,149,97.56L139.81,104a2.93,2.93,0,0,1-2.48.29l-5.4-2.14a2.3,2.3,0,0,1-1.35-1.94L130,74.42c0-.78,0-1.42-.06-1.42l-1.09-.93L117.06,61.8a1.42,1.42,0,0,0-2,.14l-.76.88a1.41,1.41,0,0,0,.14,2L125,74a3.7,3.7,0,0,1,1.1,2.35l.55,26.69A2.31,2.31,0,0,0,128,105l9.9,3.94a2.94,2.94,0,0,0,2.47-.3Z" transform="translate(-44.85 -18.74)"/><path class="cls-2" d="M288.1,64.1h-9.82V37c0-3.25.14-6.61.4-10.09h-.17c-.67,3.81-1.2,6.39-1.57,7.74L268.53,64.1h-8.64l-8.41-30.45c-.67-2.57-1.19-4.84-1.57-6.78h-.16q.39,7,.39,12.22v25h-9.65V18.74h15.14l8,29.49a26,26,0,0,1,.62,4.88h.11a27.6,27.6,0,0,1,.51-4.93l8-29.44H288.1Z" transform="translate(-44.85 -18.74)"/><path class="cls-2" d="M339.57,64.1H328.41L325.05,54H307.78l-3.2,10.09h-11l16.87-45.36h12.22ZM323.14,46.16l-5.61-15.48a20.56,20.56,0,0,1-1.12-3.81h-.11c-.34,1.5-.69,2.82-1.07,4l-5.15,15.31Z" transform="translate(-44.85 -18.74)"/><path class="cls-2" d="M385.38,64h-13l-11-17.77H355.6V64.1H345.34V18.74h20.58q16.49.45,17.21,13.34.18,11.39-11.15,13.63ZM364.24,26.65H355.6V38.59h8.64q8.24.1,8.07-5.94Q372.54,26.53,364.24,26.65Z" transform="translate(-44.85 -18.74)"/><path class="cls-2" d="M401.07,64.1H390.81V18.74h10.26Z" transform="translate(-44.85 -18.74)"/><path class="cls-2" d="M450,64.1H439.65L421.82,35.62c-.3-.45-.84-1.39-1.63-2.81-.37-.71-.63-1.19-.78-1.45q.22,3,.22,7.79V64.1H410V18.74H421L438.3,46.38a42.54,42.54,0,0,1,2.3,4.43l.06-.11q-.29-3.71-.28-6.84V18.74H450Z" transform="translate(-44.85 -18.74)"/><path class="cls-2" d="M494.59,64.1H459.22V18.74h34.7V27H469.48v9.87h22.93v8.24H469.48V55.86h25.11Z" transform="translate(-44.85 -18.74)"/><path class="cls-2" d="M277.67,85.74H263.09V122.8H252.72V85.74H238v-8.3h39.64Z" transform="translate(-44.85 -18.74)"/><path class="cls-2" d="M322.91,122.8h-10.2V104.35H293.09V122.8H282.94V77.44h10.15V95.61h19.62V77.44h10.2Z" transform="translate(-44.85 -18.74)"/><path class="cls-2" d="M339.79,122.8H329.53V77.44h10.26Z" transform="translate(-44.85 -18.74)"/><path class="cls-2" d="M386.44,122.8H376.12L358.29,94.32c-.3-.45-.84-1.38-1.62-2.81-.38-.71-.64-1.19-.79-1.45q.22,3,.23,7.79v25h-9.59V77.44h10.93l17.33,27.64a46.79,46.79,0,0,1,2.3,4.43l.05-.11q-.28-3.7-.28-6.84V77.44h9.59Z" transform="translate(-44.85 -18.74)"/><path class="cls-2" d="M436.28,122.74H423.33l-13-19.45-6.85,7.29V122.8h-10.2V77.44h10.2V98L422.16,77.5h12.72l-18.05,19Z" transform="translate(-44.85 -18.74)"/><path class="cls-2" d="M449.68,122.8H439.42V77.44h10.26Z" transform="translate(-44.85 -18.74)"/><path class="cls-2" d="M498.58,122.8H488.26L470.43,94.32c-.3-.45-.84-1.38-1.63-2.81-.37-.71-.63-1.19-.78-1.45q.23,3,.22,7.79v25h-9.59V77.44h10.94l17.32,27.64a42.54,42.54,0,0,1,2.3,4.43l.06-.11q-.28-3.7-.28-6.84V77.44h9.59Z" transform="translate(-44.85 -18.74)"/><path class="cls-2" d="M548.48,88.09l-9.37,3.59q-3.3-6.23-11.1-6.11-10.26,1-11.1,14.41.51,14,11.89,14.86,7.73,0,10.7-4.6v-5.61H526.22V96.45h22.7v16.82q-4.49,10.26-20.57,10.37-21.32-1-22.26-23.72,1.07-22,21.7-23.15Q543.15,76.77,548.48,88.09Z" transform="translate(-44.85 -18.74)"/><path class="cls-2" d="M584.25,122.8H574V77.44h10.26Z" transform="translate(-44.85 -18.74)"/><path class="cls-2" d="M633.14,122.8H622.82L605,94.32c-.3-.45-.84-1.38-1.62-2.81-.38-.71-.64-1.19-.79-1.45q.23,3,.22,7.79v25h-9.58V77.44h10.93l17.33,27.64a44.67,44.67,0,0,1,2.29,4.43l.06-.11q-.29-3.7-.28-6.84V77.44h9.59Z" transform="translate(-44.85 -18.74)"/><path class="cls-2" d="M681.64,90.67l-9.82,2.19q-2-7-9.36-7.29-10.43.57-11,14.47.51,14,11.1,14.8,8.35-.16,9.76-9.87l9.64,3q-3.36,15.52-19.45,15.64-20.87-1-21.87-23.66,1.07-22,21.76-23.21Q677.26,77.26,681.64,90.67Z" transform="translate(-44.85 -18.74)"/><path class="cls-2" d="M698.68,122.8H688V112.26h10.65Z" transform="translate(-44.85 -18.74)"/><path class="cls-1" d="M169.64,43.55a12.25,12.25,0,1,0,12.27-12.22A12.25,12.25,0,0,0,169.64,43.55Zm3.84.07A8.41,8.41,0,1,1,181.87,52,8.4,8.4,0,0,1,173.48,43.62Z" transform="translate(-44.85 -18.74)"/><path class="cls-1" d="M84.67,43.42A12.25,12.25,0,1,0,96.91,31.17,12.24,12.24,0,0,0,84.67,43.42Zm3.84.06a8.41,8.41,0,1,1,8.4,8.4A8.4,8.4,0,0,1,88.51,43.48Z" transform="translate(-44.85 -18.74)"/><path class="cls-1" d="M156.77,63.88S176,66,190.13,67.54s21.28-11.11,22.36-18.63c1.26-8.82-1.57-16.29-8.44-21.91s-26.64-6-33.92-6.59S147.84,29.34,145.72,46,156.77,63.88,156.77,63.88Zm-7.18-18.06c1.87-13.8,15-21.65,21.45-21.2s23.75.79,29.78,5.46,8.52,10.86,7.41,18.16C207.29,54.47,201,65,188.6,63.68s-29.3-3-29.3-3S147.72,59.61,149.59,45.82Z" transform="translate(-44.85 -18.74)"/><path class="cls-1" d="M133.6,45.59C131.48,29,116.46,19.48,109.18,20s-27,1-33.91,6.59-9.7,13.09-8.44,21.91C67.91,56,75,68.72,89.19,67.15s33.36-3.66,33.36-3.66S135.73,62.23,133.6,45.59ZM120,60.26s-16.86,1.73-29.3,3S72,54.08,71.08,47.85c-1.1-7.31,1.38-13.5,7.41-18.16s23.4-5,29.79-5.46,19.58,7.4,21.45,21.19S120,60.26,120,60.26Z" transform="translate(-44.85 -18.74)"/><path class="cls-2" d="M44.85,120.08c10.16-9.39,18.2-19.5,31.05-27.64,19.71-12.48,32,5.63,57.21,17.91,9,4.37,18.11,7.76,23.93,8.41-14.88,1.94-25.87-1.3-34.57-4.62-25.23-9.63-41.34-24.65-70.93,1.6C46.58,119.09,44.85,120.08,44.85,120.08Z" transform="translate(-44.85 -18.74)"/><path class="cls-2" d="M175.8,86c-12.6,7.89-20.09,18.88-34,24.91,2.84,1.2,5.87,2.26,8.62,3.15,12.58-6.1,21.12-17.42,35-21.87,15.94-5.49,28.39,7.45,42.19,11.68l1.28.38C214.21,95.52,197.23,73.19,175.8,86Z" transform="translate(-44.85 -18.74)"/></svg>