<?xml version="1.0" encoding="utf-8"?>
<!-- Generator: Adobe Illustrator 23.0.3, SVG Export Plug-In . SVG Version: 6.00 Build 0)  -->
<svg version="1.1" id="图层_1" xmlns="http://www.w3.org/2000/svg" xmlns:xlink="http://www.w3.org/1999/xlink" x="0px" y="0px"
	 viewBox="0 0 534.4 137.5" style="enable-background:new 0 0 534.4 137.5;" xml:space="preserve">
<style type="text/css">
	.st0{fill-rule:evenodd;clip-rule:evenodd;fill:#FFFFFF;}
	.st1{enable-background:new    ;}
	.st2{fill:#FFFFFF;}
</style>
<g>
	<path class="st0" d="M136.9,20.4c0.8,0,1.4,0.6,1.4,1.4V23c0,0.8-0.6,1.4-1.4,1.4L78.7,24c-0.8,0-1.4-0.6-1.4-1.4v-1.2
		c0-0.8,0.6-1.4,1.4-1.4L136.9,20.4z"/>
</g>
<g>
	<path class="st0" d="M121.1,99.6c0.6-0.4,1.2-1.5,1.2-2.2l0.2-21.3c0-0.8,0.5-1.9,1-2.4l8.6-8.6c0.6-0.6,0.6-1.5,0-2l-0.8-0.8
		c-0.6-0.6-1.5-0.6-2,0l-9.8,9.8c-0.6,0.6-1,1-1,1l0,0l0,0l0,0c0,0,0,0.6,0,1.4l-0.2,20.9c0,0.8-0.5,1.8-1.2,2.2l-9.2,6.5
		c-0.6,0.4-1.8,0.6-2.5,0.3l-5.4-2.1c-0.7-0.3-1.3-1.2-1.3-1.9l-0.5-25.8c0-0.8,0-1.4-0.1-1.4c0,0-0.5-0.4-1.1-0.9L85.1,61.8
		c-0.6-0.5-1.5-0.4-2,0.1l-0.8,0.9c-0.5,0.6-0.4,1.5,0.1,2L93,74c0.6,0.5,1.1,1.6,1.1,2.3l0.5,26.7c0,0.8,0.6,1.7,1.3,1.9l9.9,3.9
		c0.7,0.3,1.8,0.2,2.5-0.3L121.1,99.6z"/>
</g>
<g class="st1">
	<path class="st2" d="M256.2,64.1h-9.8V37c0-3.3,0.1-6.6,0.4-10.1h-0.2c-0.7,3.8-1.2,6.4-1.6,7.7l-8.4,29.5H228l-8.4-30.4
		c-0.7-2.6-1.2-4.8-1.6-6.8h-0.2c0.3,4.7,0.4,8.7,0.4,12.2v25h-9.6V18.7h15.1l8,29.5c0.3,1.2,0.5,2.8,0.6,4.9h0.1
		c0.1-2.5,0.3-4.1,0.5-4.9l8-29.4h15.3V64.1z"/>
	<path class="st2" d="M306.4,64.1h-11.2L291.8,54h-17.3l-3.2,10.1h-11l16.9-45.4h12.2L306.4,64.1z M289.9,46.2l-5.6-15.5
		c-0.5-1.2-0.9-2.5-1.1-3.8h-0.1c-0.3,1.5-0.7,2.8-1.1,4l-5.2,15.3H289.9z"/>
	<path class="st2" d="M350.9,64h-13l-11-17.8h-5.8v17.8h-10.3V18.7h20.6c11,0.3,16.7,4.7,17.2,13.3c0.1,7.6-3.6,12.1-11.2,13.6
		L350.9,64z M329.7,26.6h-8.6v11.9h8.6c5.5,0.1,8.2-1.9,8.1-5.9C338,28.6,335.3,26.6,329.7,26.6z"/>
	<path class="st2" d="M365.3,64.1H355V18.7h10.3V64.1z"/>
	<path class="st2" d="M412.9,64.1h-10.3l-17.8-28.5c-0.3-0.4-0.8-1.4-1.6-2.8c-0.4-0.7-0.6-1.2-0.8-1.5c0.1,2,0.2,4.6,0.2,7.8v25
		H373V18.7h10.9l17.3,27.6c0.7,1.2,1.5,2.7,2.3,4.4l0.1-0.1c-0.2-2.5-0.3-4.7-0.3-6.8V18.7h9.6V64.1z"/>
	<path class="st2" d="M456.2,64.1h-35.4V18.7h34.7V27h-24.4v9.9H454v8.2h-22.9v10.7h25.1V64.1z"/>
</g>
<g class="st1">
	<path class="st2" d="M245.7,85.7h-14.6v37.1h-10.4V85.7h-14.7v-8.3h39.6V85.7z"/>
	<path class="st2" d="M291,122.8h-10.2v-18.4h-19.6v18.4H251V77.4h10.1v18.2h19.6V77.4H291V122.8z"/>
	<path class="st2" d="M307.9,122.8h-10.3V77.4h10.3V122.8z"/>
	<path class="st2" d="M354.5,122.8h-10.3l-17.8-28.5c-0.3-0.4-0.8-1.4-1.6-2.8c-0.4-0.7-0.6-1.2-0.8-1.5c0.1,2,0.2,4.6,0.2,7.8v25
		h-9.6V77.4h10.9l17.3,27.6c0.7,1.2,1.5,2.7,2.3,4.4l0.1-0.1c-0.2-2.5-0.3-4.7-0.3-6.8V77.4h9.6V122.8z"/>
	<path class="st2" d="M404.4,122.7h-13l-13-19.5l-6.8,7.3v12.2h-10.2V77.4h10.2V98l18.7-20.5H403l-18.1,19L404.4,122.7z"/>
</g>
<g class="st1">
	<path class="st2" d="M417.8,122.8h-10.3V77.4h10.3V122.8z"/>
	<path class="st2" d="M465.4,122.8H455l-17.8-28.5c-0.3-0.4-0.8-1.4-1.6-2.8c-0.4-0.7-0.6-1.2-0.8-1.5c0.1,2,0.2,4.6,0.2,7.8v25
		h-9.6V77.4h10.9l17.3,27.6c0.7,1.2,1.5,2.7,2.3,4.4l0.1-0.1c-0.2-2.5-0.3-4.7-0.3-6.8V77.4h9.6V122.8z"/>
	<path class="st2" d="M514,88.1l-9.4,3.6c-2.2-4.1-5.9-6.2-11.1-6.1c-6.8,0.6-10.5,5.4-11.1,14.4c0.3,9.3,4.3,14.3,11.9,14.9
		c5.2,0,8.7-1.5,10.7-4.6v-5.6h-13.3v-8.2h22.7v16.8c-3,6.8-9.8,10.3-20.6,10.4c-14.2-0.6-21.6-8.5-22.3-23.7
		c0.7-14.7,7.9-22.4,21.7-23.2C503.5,76.8,510.4,80.5,514,88.1z"/>
</g>
<g>
	<path class="st0" d="M137.7,43.6c0,6.8,5.5,12.3,12.2,12.3c6.8,0,12.3-5.5,12.3-12.2c0-6.8-5.5-12.3-12.2-12.3
		C143.2,31.3,137.7,36.8,137.7,43.6z M141.6,43.6c0-4.6,3.8-8.4,8.4-8.4c4.6,0,8.4,3.8,8.4,8.4S154.6,52,150,52
		C145.3,52,141.6,48.3,141.6,43.6z"/>
	<path class="st0" d="M52.7,43.4c0,6.8,5.5,12.2,12.2,12.2s12.2-5.5,12.2-12.2S71.8,31.2,65,31.2S52.7,36.7,52.7,43.4z M56.6,43.5
		c0-4.6,3.8-8.4,8.4-8.4s8.4,3.8,8.4,8.4s-3.8,8.4-8.4,8.4S56.6,48.1,56.6,43.5z"/>
	<path class="st0" d="M124.8,63.9c0,0,19.2,2.1,33.4,3.7c14.2,1.6,21.3-11.1,22.4-18.6c1.3-8.8-1.6-16.3-8.4-21.9s-26.6-6-33.9-6.6
		C131,20,116,29.4,113.9,46.1C111.7,62.6,124.8,63.9,124.8,63.9z M117.7,45.8c1.9-13.8,15.1-21.6,21.4-21.2
		c6.4,0.5,23.8,0.8,29.8,5.5s8.5,10.9,7.4,18.2c-0.9,6.2-7.2,16.7-19.6,15.4c-12.4-1.3-29.3-3-29.3-3S115.8,59.6,117.7,45.8z"/>
	<path class="st0" d="M101.7,45.6C99.6,28.9,84.5,19.5,77.3,20c-7.3,0.5-27,1-33.9,6.6S33.7,39.7,35,48.5c1,7.5,8.1,20.2,22.3,18.6
		s33.4-3.7,33.4-3.7S103.8,62.2,101.7,45.6z M88.1,60.3c0,0-16.9,1.7-29.3,3c-12.4,1.3-18.7-9.2-19.6-15.4
		c-1.1-7.3,1.4-13.5,7.4-18.2s23.4-5,29.8-5.5c6.4-0.5,19.6,7.4,21.4,21.2C99.7,59.2,88.1,60.3,88.1,60.3z"/>
	<g>
		<g>
			<path class="st2" d="M12.9,120.1c10.2-9.4,18.2-19.5,31.1-27.6c19.7-12.5,32,5.6,57.2,17.9c9,4.4,18.1,7.8,23.9,8.4
				c-14.9,1.9-25.9-1.3-34.6-4.6c-25.2-9.6-41.3-24.7-70.9,1.6C14.7,119.1,12.9,120.1,12.9,120.1z"/>
		</g>
		<g>
			<path class="st2" d="M143.9,86c-12.6,7.9-20.1,18.9-34,24.9c2.8,1.2,5.9,2.3,8.6,3.1c12.6-6.1,21.1-17.4,35-21.9
				c15.9-5.5,28.4,7.5,42.2,11.7c0.8,0.2,1.3,0.4,1.3,0.4C182.3,95.5,165.3,73.2,143.9,86z"/>
		</g>
	</g>
</g>
</svg>
