<svg id="图层_1" data-name="图层 1" xmlns="http://www.w3.org/2000/svg" viewBox="0 0 534.5 116.76"><defs><style>.cls-1,.cls-2{fill:#fff;}.cls-1,.cls-3{fill-rule:evenodd;}.cls-3{fill:none;stroke:#fff;stroke-miterlimit:10;stroke-width:3px;}</style></defs><title>logo-w</title><path class="cls-1" d="M156.35,39.3a13.93,13.93,0,1,0,13.93-13.93A13.93,13.93,0,0,0,156.35,39.3Zm4.37.07a9.56,9.56,0,1,1,9.56,9.56A9.56,9.56,0,0,1,160.72,39.37Z" transform="translate(-14.42 -12.49)"/><path class="cls-1" d="M59.71,39.12A13.93,13.93,0,1,0,73.64,25.19,13.93,13.93,0,0,0,59.71,39.12Zm4.37.07a9.56,9.56,0,1,1,9.56,9.56A9.56,9.56,0,0,1,64.08,39.19Z" transform="translate(-14.42 -12.49)"/><path class="cls-1" d="M141.71,62.39s21.84,2.38,37.94,4.16,24.21-12.63,25.43-21.18c1.44-10-1.78-18.53-9.59-24.93s-30.3-6.87-38.58-7.48S131.56,23.11,129.14,42,141.71,62.39,141.71,62.39Zm-8.16-20.54c2.12-15.69,17.12-24.62,24.39-24.11s27,.9,33.88,6.21,9.68,12.35,8.42,20.66c-1.07,7.08-8.18,19-22.33,17.56s-33.32-3.45-33.32-3.45S131.42,57.53,133.55,41.85Z" transform="translate(-14.42 -12.49)"/><path class="cls-1" d="M115.36,41.59C113,22.66,95.87,11.89,87.59,12.51S56.84,13.6,49,20s-11,14.89-9.6,24.93c1.23,8.54,9.33,23,25.43,21.18S102.79,62,102.79,62,117.78,60.52,115.36,41.59ZM99.92,58.27s-19.18,2-33.33,3.45S45.34,51.25,44.26,44.16C43,35.85,45.82,28.81,52.69,23.51s26.61-5.7,33.88-6.21S108.84,25.72,111,41.4,99.92,58.27,99.92,58.27Z" transform="translate(-14.42 -12.49)"/><path class="cls-2" d="M225.15,113.41c-16.64-9.89-36-35.28-60.33-20.75-15.29,9.58-24,23.18-42,29.64a39.59,39.59,0,0,1-10.75,1.87c-3.69.11-7.27.46-11.39-.72,3,2,5.63,2.67,8.6,3.59s5.89,2.1,8.88,2.09C144,128,154.25,106.59,175.71,99.7c18.13-6.24,32.28,8.48,48,13.29Z" transform="translate(-14.42 -12.49)"/><path class="cls-2" d="M14.42,129.25c11.56-10.67,19.7-24,35.32-31.44,25.7-12.42,43.53,13.06,64.13,21.25a52.57,52.57,0,0,0,7.62,2.64,45.86,45.86,0,0,0,8,1.43,31.64,31.64,0,0,0,9.07-.46c-2.69,1.67-4.26,3-7.33,4.1a43.43,43.43,0,0,1-14.33,2.37c-4.88,0-8.25-.81-14.2-4.44-26.21-16-47-30.24-80.66-.38C16.39,128.12,14.42,129.25,14.42,129.25Z" transform="translate(-14.42 -12.49)"/><path class="cls-3" d="M129.14,42a35.44,35.44,0,0,1,20.39-27.51c-13.59,0-40.15,0-53.68,0a35.49,35.49,0,0,1,19.51,27.1C117.78,60.52,102.79,62,102.79,62l-5.55.6a3.41,3.41,0,0,0,1,1.52c1.17,1.12,10.76,9.4,10.76,9.4l.73,33.47,11.71,4.65,1.62-1.16,13.49-9.5.31-27.31L147.06,63.4a2.4,2.4,0,0,0,.28-.4l-5.63-.61S126.73,61,129.14,42Z" transform="translate(-14.42 -12.49)"/><path class="cls-2" d="M288.1,64.1h-9.82V37c0-3.25.14-6.61.4-10.09h-.17c-.67,3.81-1.2,6.39-1.57,7.74L268.53,64.1h-8.64l-8.41-30.45c-.67-2.57-1.19-4.84-1.57-6.78h-.16q.39,7,.39,12.22v25h-9.65V18.74h15.14l8,29.49a26,26,0,0,1,.62,4.88h.11a27.6,27.6,0,0,1,.51-4.93l8-29.44H288.1Z" transform="translate(-14.42 -12.49)"/><path class="cls-2" d="M339.57,64.1H328.41L325.05,54H307.78l-3.2,10.09h-11l16.87-45.36h12.22ZM323.14,46.16l-5.61-15.48a20.56,20.56,0,0,1-1.12-3.81h-.11c-.34,1.5-.69,2.82-1.07,4l-5.15,15.31Z" transform="translate(-14.42 -12.49)"/><path class="cls-2" d="M385.38,64h-13l-11-17.77H355.6V64.1H345.34V18.74h20.58q16.49.45,17.21,13.34.18,11.39-11.15,13.63ZM364.24,26.65H355.6V38.59h8.64q8.24.1,8.07-5.94Q372.54,26.53,364.24,26.65Z" transform="translate(-14.42 -12.49)"/><path class="cls-2" d="M401.07,64.1H390.81V18.74h10.26Z" transform="translate(-14.42 -12.49)"/><path class="cls-2" d="M450,64.1H439.65L421.82,35.62c-.3-.45-.84-1.39-1.63-2.81-.37-.71-.63-1.19-.78-1.45q.22,3,.22,7.79V64.1H410V18.74H421L438.3,46.38a42.54,42.54,0,0,1,2.3,4.43l.06-.11q-.29-3.71-.28-6.84V18.74H450Z" transform="translate(-14.42 -12.49)"/><path class="cls-2" d="M494.59,64.1H459.22V18.74h34.7V27H469.48v9.87h22.93v8.24H469.48V55.86h25.11Z" transform="translate(-14.42 -12.49)"/><path class="cls-2" d="M277.67,85.74H263.09V122.8H252.72V85.74H238v-8.3h39.64Z" transform="translate(-14.42 -12.49)"/><path class="cls-2" d="M322.91,122.8h-10.2V104.35H293.09V122.8H282.94V77.44h10.15V95.61h19.62V77.44h10.2Z" transform="translate(-14.42 -12.49)"/><path class="cls-2" d="M339.79,122.8H329.53V77.44h10.26Z" transform="translate(-14.42 -12.49)"/><path class="cls-2" d="M386.44,122.8H376.12L358.29,94.32c-.3-.45-.84-1.38-1.62-2.81-.38-.71-.64-1.19-.79-1.45q.22,3,.23,7.79v25h-9.59V77.44h10.93l17.33,27.64a46.79,46.79,0,0,1,2.3,4.43l.05-.11q-.28-3.7-.28-6.84V77.44h9.59Z" transform="translate(-14.42 -12.49)"/><path class="cls-2" d="M436.28,122.74H423.33l-13-19.45-6.85,7.29V122.8h-10.2V77.44h10.2V98L422.16,77.5h12.72l-18.05,19Z" transform="translate(-14.42 -12.49)"/><path class="cls-2" d="M449.68,122.8H439.42V77.44h10.26Z" transform="translate(-14.42 -12.49)"/><path class="cls-2" d="M498.58,122.8H488.26L470.43,94.32c-.3-.45-.84-1.38-1.63-2.81-.37-.71-.63-1.19-.78-1.45q.23,3,.22,7.79v25h-9.59V77.44h10.94l17.32,27.64a42.54,42.54,0,0,1,2.3,4.43l.06-.11q-.28-3.7-.28-6.84V77.44h9.59Z" transform="translate(-14.42 -12.49)"/><path class="cls-2" d="M548.48,88.09l-9.37,3.59q-3.3-6.23-11.1-6.11-10.26,1-11.1,14.41.51,14,11.89,14.86,7.73,0,10.7-4.6v-5.61H526.22V96.45h22.7v16.82q-4.49,10.26-20.57,10.37-21.32-1-22.26-23.72,1.07-22,21.7-23.15Q543.15,76.77,548.48,88.09Z" transform="translate(-14.42 -12.49)"/></svg>