<svg id="图层_1" data-name="图层 1" xmlns="http://www.w3.org/2000/svg" viewBox="0 0 368.61 239.31"><defs><style>.cls-1,.cls-2{fill:#1657a7;}.cls-2{fill-rule:evenodd;}</style></defs><title>logo(base-vertical)</title><path class="cls-1" d="M108.31,368.2h-4.9V351.94q0-2.93.19-6.05h-.08c-.34,2.28-.6,3.83-.78,4.63l-4.2,17.68H94.22L90,350c-.33-1.54-.59-2.9-.78-4.06h-.08q.2,4.2.19,7.32v15H84.54V341H92.1l4,17.67a19,19,0,0,1,.31,2.92h.06a19.15,19.15,0,0,1,.25-2.95l4-17.64h7.62Z" transform="translate(-84.54 -129.39)"/><path class="cls-1" d="M134,368.2h-5.57l-1.68-6.05h-8.62l-1.6,6.05H111L119.45,341h6.11Zm-8.2-10.75-2.8-9.28a13.33,13.33,0,0,1-.56-2.28h-.06c-.17.89-.34,1.69-.53,2.38l-2.58,9.18Z" transform="translate(-84.54 -129.39)"/><path class="cls-1" d="M156.89,368.16h-6.47l-5.49-10.65H142V368.2H136.9V341h10.27q8.24.27,8.6,8,.07,6.83-5.57,8.17Zm-10.56-22.41H142v7.16h4.31c2.74,0,4.09-1.14,4-3.56S149.09,345.71,146.33,345.75Z" transform="translate(-84.54 -129.39)"/><path class="cls-1" d="M164.73,368.2H159.6V341h5.13Z" transform="translate(-84.54 -129.39)"/><path class="cls-1" d="M189.14,368.2H184l-8.9-17.07c-.15-.27-.42-.83-.82-1.68q-.27-.65-.39-.87c.08,1.2.11,2.76.11,4.67V368.2h-4.78V341h5.46l8.65,16.56c.37.74.75,1.62,1.15,2.66l0-.07c-.09-1.48-.14-2.85-.14-4.1V341h4.79Z" transform="translate(-84.54 -129.39)"/><path class="cls-1" d="M211.43,368.2H193.76V341h17.33v5h-12.2v5.91h11.45v4.94H198.89v6.42h12.54Z" transform="translate(-84.54 -129.39)"/><path class="cls-1" d="M242.9,346h-7.28V368.2h-5.18V346h-7.33v-5H242.9Z" transform="translate(-84.54 -129.39)"/><path class="cls-1" d="M265.5,368.2h-5.1V357.14h-9.8V368.2h-5.07V341h5.07V351.9h9.8V341h5.1Z" transform="translate(-84.54 -129.39)"/><path class="cls-1" d="M273.92,368.2H268.8V341h5.12Z" transform="translate(-84.54 -129.39)"/><path class="cls-1" d="M297.22,368.2h-5.15l-8.91-17.07q-.23-.4-.81-1.68c-.18-.43-.32-.72-.39-.87.07,1.2.11,2.76.11,4.67V368.2h-4.79V341h5.46l8.66,16.56a27.84,27.84,0,0,1,1.14,2.66l0-.07c-.09-1.48-.14-2.85-.14-4.1V341h4.79Z" transform="translate(-84.54 -129.39)"/><path class="cls-1" d="M322.11,368.16h-6.47l-6.49-11.65-3.42,4.36v7.33h-5.09V341h5.09v12.29l9.33-12.26h6.35l-9,11.39Z" transform="translate(-84.54 -129.39)"/><path class="cls-1" d="M328.8,368.2h-5.12V341h5.12Z" transform="translate(-84.54 -129.39)"/><path class="cls-1" d="M353.22,368.2h-5.15l-8.91-17.07q-.23-.4-.81-1.68l-.39-.87c.07,1.2.11,2.76.11,4.67V368.2h-4.79V341h5.46l8.66,16.56a27.84,27.84,0,0,1,1.14,2.66l0-.07c-.09-1.48-.14-2.85-.14-4.1V341h4.79Z" transform="translate(-84.54 -129.39)"/><path class="cls-1" d="M378.14,347.4l-4.68,2.15a5.55,5.55,0,0,0-5.54-3.66q-5.13.57-5.55,8.63.25,8.37,5.94,8.91,3.87,0,5.35-2.76v-3.36H367v-4.9h11.34v10.08c-1.49,4.09-4.92,6.17-10.27,6.21q-10.65-.57-11.12-14.21.52-13.17,10.84-13.88Q375.48,340.61,378.14,347.4Z" transform="translate(-84.54 -129.39)"/><path class="cls-1" d="M396,368.2h-5.12V341H396Z" transform="translate(-84.54 -129.39)"/><path class="cls-1" d="M420.42,368.2h-5.15l-8.91-17.07q-.23-.4-.81-1.68l-.39-.87c.07,1.2.11,2.76.11,4.67V368.2h-4.79V341h5.46l8.65,16.56a25.37,25.37,0,0,1,1.15,2.66l0-.07c-.09-1.48-.14-2.85-.14-4.1V341h4.79Z" transform="translate(-84.54 -129.39)"/><path class="cls-1" d="M444.64,349l-4.9,1.31q-1-4.17-4.68-4.37-5.21.33-5.49,8.67.26,8.35,5.55,8.87,4.17-.1,4.87-5.92l4.81,1.82q-1.68,9.3-9.71,9.37-10.43-.57-10.92-14.18.52-13.2,10.86-13.91Q442.46,340.91,444.64,349Z" transform="translate(-84.54 -129.39)"/><path class="cls-1" d="M453.15,368.2h-5.32v-6.32h5.32Z" transform="translate(-84.54 -129.39)"/><path class="cls-2" d="M324.25,130.25a1.44,1.44,0,0,1,1.42,1.43v4.81a1.41,1.41,0,0,1-1.42,1.41l-113.93-.72a1.44,1.44,0,0,1-1.42-1.43v-4.81a1.41,1.41,0,0,1,1.42-1.41Z" transform="translate(-84.54 -129.39)"/><path class="cls-2" d="M293.76,280.91a3.07,3.07,0,0,0,1.17-2.23l.33-43.29a4,4,0,0,1,1-2.42l18.27-18.27a1.41,1.41,0,0,0,0-2l-3.4-3.4a1.42,1.42,0,0,0-2,0l-20.49,20.48-1,1h0s0,.64,0,1.42l-.32,42.52a3.09,3.09,0,0,1-1.17,2.24l-19.76,13.87a2.93,2.93,0,0,1-2.48.29l-12.74-5.05a2.34,2.34,0,0,1-1.35-1.94l-1.1-52a10.43,10.43,0,0,0-.08-1.42s-.53-.42-1.12-.93L223,208.48a1.42,1.42,0,0,0-2,.14l-3.16,3.63a1.42,1.42,0,0,0,.14,2l22.1,19.2a3.68,3.68,0,0,1,1.1,2.35l1.1,53.61a2.3,2.3,0,0,0,1.34,1.94l21.33,8.49a2.91,2.91,0,0,0,2.47-.29Z" transform="translate(-84.54 -129.39)"/><path class="cls-2" d="M324.48,174.42A23.42,23.42,0,1,0,348,151.05,23.42,23.42,0,0,0,324.48,174.42Zm7.35.14a16.07,16.07,0,1,1,16,16.1A16.07,16.07,0,0,1,331.83,174.56Z" transform="translate(-84.54 -129.39)"/><path class="cls-2" d="M162,174.17a23.42,23.42,0,1,0,23.42-23.42A23.43,23.43,0,0,0,162,174.17Zm7.36.13a16.06,16.06,0,1,1,16.06,16.06A16.06,16.06,0,0,1,169.35,174.3Z" transform="translate(-84.54 -129.39)"/><path class="cls-2" d="M299.87,213.3s36.71,4,63.79,7,40.7-21.25,42.75-35.62c2.42-16.87-3-31.15-16.13-41.91s-50.93-11.55-64.85-12.59-42.63,17.07-46.7,48.89S299.87,213.3,299.87,213.3Zm-13.73-34.55c3.57-26.37,28.79-41.38,41-40.52s45.42,1.51,57,10.43,16.29,20.76,14.17,34.74c-1.8,11.91-13.76,32-37.55,29.52s-56-5.8-56-5.8S282.57,205.13,286.14,178.75Z" transform="translate(-84.54 -129.39)"/><path class="cls-2" d="M255.56,178.33c-4.06-31.83-32.77-49.94-46.69-48.9S157.16,131.26,144,142s-18.54,25-16.13,41.91c2.06,14.37,15.67,38.62,42.76,35.62s63.79-7,63.79-7S259.63,210.15,255.56,178.33Zm-26,28s-32.24,3.32-56,5.8-35.75-17.6-37.55-29.52c-2.12-14,2.62-25.81,14.16-34.73s44.74-9.58,57-10.44,37.44,14.15,41,40.53S229.59,206.37,229.59,206.37Z" transform="translate(-84.54 -129.39)"/><path class="cls-1" d="M85.85,320.76c19.43-17.94,34.8-37.29,59.38-52.85,37.69-23.85,61.18,10.77,109.4,34.26,17.13,8.34,34.62,14.83,45.75,16.07-28.44,3.71-49.46-2.47-66.1-8.83C186,291,155.23,262.27,98.64,312.47,89.15,318.88,85.85,320.76,85.85,320.76Z" transform="translate(-84.54 -129.39)"/><path class="cls-1" d="M336.26,255.54c-24.1,15.09-38.42,36.11-65.08,47.64,5.44,2.3,11.23,4.31,16.5,6,24.05-11.66,40.37-33.32,66.88-41.82,30.48-10.49,54.28,14.25,80.68,22.34l2.45.71C409.7,273.79,377.24,231.11,336.26,255.54Z" transform="translate(-84.54 -129.39)"/></svg>