<svg id="图层_1" data-name="图层 1" xmlns="http://www.w3.org/2000/svg" viewBox="0 0 401.98 56.03"><defs><style>.cls-1,.cls-3{fill:#fff;}.cls-15,.cls-2{fill:#737373;}.cls-10,.cls-11,.cls-12,.cls-13,.cls-2,.cls-3,.cls-4,.cls-5,.cls-6,.cls-7,.cls-8,.cls-9{fill-rule:evenodd;}.cls-22,.cls-4{fill:#e6e6e5;}.cls-19,.cls-5{fill:#adadad;}.cls-6{fill:#a3b3c9;}.cls-7{fill:#82a6d7;}.cls-23,.cls-8{fill:#d6d6d6;}.cls-9{fill:#bdbdbd;}.cls-10{fill:#2b6cb5;}.cls-11{fill:#c5c5c5;}.cls-12,.cls-20{fill:#a5a5a5;}.cls-13,.cls-17{fill:#dedede;}.cls-14{fill:none;}.cls-16{fill:#cecece;}.cls-18{fill:#8c8c8c;}.cls-21{fill:#b5b5b5;}.cls-24{fill:#949494;}</style></defs><title>MT-LOGO</title><path class="cls-1" d="M203,37.17h-5.17V22.86c0-1.72.07-3.49.2-5.33h-.08c-.36,2-.64,3.38-.83,4.09l-4.44,15.55h-4.56l-4.43-16.06c-.36-1.36-.63-2.55-.83-3.58h-.09q.21,3.7.21,6.45V37.17h-5.09V13.24h8l4.2,15.56a14.67,14.67,0,0,1,.32,2.58h.06a14.61,14.61,0,0,1,.27-2.61L195,13.24h8Z" transform="translate(-9.94 -13.24)"/><path class="cls-1" d="M229,37.17h-5.89l-1.78-5.32h-9.11l-1.68,5.32h-5.83l8.9-23.93H220Zm-8.67-9.46-3-8.17a10.65,10.65,0,0,1-.59-2h-.06c-.18.79-.37,1.49-.56,2.1l-2.72,8.08Z" transform="translate(-9.94 -13.24)"/><path class="cls-1" d="M252,37.15h-6.83l-5.8-9.38h-3.08v9.4h-5.41V13.24h10.86q8.69.24,9.08,7,.09,6-5.89,7.19ZM240.8,17.41h-4.56v6.31h4.56q4.35.06,4.26-3.14C245.14,18.43,243.72,17.38,240.8,17.41Z" transform="translate(-9.94 -13.24)"/><path class="cls-1" d="M259.05,37.17h-5.42V13.24h5.42Z" transform="translate(-9.94 -13.24)"/><path class="cls-1" d="M283.66,37.17h-5.44l-9.41-15c-.16-.24-.44-.73-.86-1.48-.2-.38-.33-.63-.41-.77.08,1.06.12,2.44.12,4.11V37.17H262.6V13.24h5.77l9.14,14.59a23.49,23.49,0,0,1,1.21,2.33l0-.06q-.15-2-.15-3.6V13.24h5.06Z" transform="translate(-9.94 -13.24)"/><path class="cls-1" d="M306,37.17H287.36V13.24h18.31v4.38h-12.9v5.21h12.1v4.35h-12.1v5.65H306Z" transform="translate(-9.94 -13.24)"/><path class="cls-1" d="M198.08,48.34h-7.69V67.89h-5.47V48.34h-7.75V44h20.91Z" transform="translate(-9.94 -13.24)"/><path class="cls-1" d="M222,67.89h-5.38V58.16H206.21v9.73h-5.35V44h5.35v9.59h10.36V44H222Z" transform="translate(-9.94 -13.24)"/><path class="cls-1" d="M230.85,67.89h-5.41V44h5.41Z" transform="translate(-9.94 -13.24)"/><path class="cls-1" d="M255.46,67.89H250l-9.4-15c-.16-.24-.45-.73-.86-1.48-.2-.38-.34-.63-.42-.77q.12,1.59.12,4.11V67.89H234.4V44h5.77l9.14,14.58a24.82,24.82,0,0,1,1.22,2.34l0-.06c-.09-1.3-.14-2.5-.14-3.61V44h5.05Z" transform="translate(-9.94 -13.24)"/><path class="cls-1" d="M281.76,67.86h-6.83L268.07,57.6l-3.61,3.84v6.45h-5.39V44h5.39V54.79L274.31,44H281L271.5,54Z" transform="translate(-9.94 -13.24)"/><path class="cls-1" d="M288.83,67.89h-5.41V44h5.41Z" transform="translate(-9.94 -13.24)"/><path class="cls-1" d="M313.44,67.89H308l-9.41-15c-.16-.24-.44-.73-.85-1.48-.2-.38-.34-.63-.42-.77q.12,1.59.12,4.11V67.89h-5.06V44h5.77l9.14,14.58a24.93,24.93,0,0,1,1.21,2.34l0-.06c-.1-1.3-.15-2.5-.15-3.61V44h5.06Z" transform="translate(-9.94 -13.24)"/><path class="cls-1" d="M338.59,49.58l-4.94,1.9a6,6,0,0,0-5.86-3.23q-5.42.51-5.86,7.6.27,7.36,6.27,7.84c2.72,0,4.61-.81,5.65-2.42v-3h-7V54h12v8.87q-2.37,5.42-10.85,5.48-11.25-.51-11.75-12.52.57-11.59,11.45-12.21Q335.77,43.61,338.59,49.58Z" transform="translate(-9.94 -13.24)"/><path class="cls-1" d="M355.09,67.89h-5.41V44h5.41Z" transform="translate(-9.94 -13.24)"/><path class="cls-1" d="M379.7,67.89h-5.44l-9.41-15c-.16-.24-.44-.73-.85-1.48-.2-.38-.34-.63-.42-.77q.12,1.59.12,4.11V67.89h-5.06V44h5.77l9.14,14.58a24.93,24.93,0,0,1,1.21,2.34l0-.06c-.1-1.3-.15-2.5-.15-3.61V44h5.06Z" transform="translate(-9.94 -13.24)"/><path class="cls-1" d="M404.11,50.94l-5.18,1.16A4.91,4.91,0,0,0,394,48.25q-5.5.3-5.8,7.63.27,7.36,5.86,7.81c2.94-.06,4.65-1.79,5.15-5.2l5.08,1.59q-1.77,8.2-10.26,8.26-11-.51-11.54-12.49.57-11.62,11.48-12.24Q401.81,43.87,404.11,50.94Z" transform="translate(-9.94 -13.24)"/><path class="cls-1" d="M411.92,67.89h-5.63V62.33h5.63Z" transform="translate(-9.94 -13.24)"/><rect class="cls-1" x="142.58" y="0.99" width="5.79" height="55.04"/><path class="cls-2" d="M88.81,68.3A3.93,3.93,0,0,1,86,66.78h-.09c-.11-1-.36-1.37,0-2.36a5.87,5.87,0,0,1,2.6-2.5c0-.24-.08-.47-.11-.7A4.21,4.21,0,0,0,86.28,60c-.51,0-1.46.17-1.62-.48h-.11a6,6,0,0,1-.07-1.35c.74-2.07,3.06-3.86,5.14-2.38a8.37,8.37,0,0,1,1.06,2.19c.17.84.23,1.68.31,1.8a1.92,1.92,0,0,1,.57.3,4.58,4.58,0,0,0,1.73-.78c.23-.39.56-.81.79-1.24,2.33-1.4,3,2,3.2,3.65-.28,2.41-2.42,2.38-4.34,2-1.21-.48-1.29-.57-1.39-.6a4.6,4.6,0,0,0-.53.31,2.83,2.83,0,0,0,.26,2.93c.27.94.27,1.36-.6,1.79v.11a10.82,10.82,0,0,1-1.87.12Z" transform="translate(-9.94 -13.24)"/><path class="cls-2" d="M102.89,68a6.86,6.86,0,0,1-3-1.21,1,1,0,0,1,0-.11c-.48-.15-.77-1-1-1.4a2.66,2.66,0,0,1,1-2.45c0-.48,1.85-1.17,2.31-1.35.21,0,.41-.07.63-.08,0-.22,0-.44.06-.65a3.84,3.84,0,0,0-1.65-1.84c-.92-.25-1.29-.23-1.46-1.15.16-1.49.76-1.71,2-2.59a4.16,4.16,0,0,1,.48-.22c2.94-.57,3.67.72,3.76,3.39-.12,1.05-.23,1.4-.22,1.71l.49.49a7.48,7.48,0,0,0,1.75-.26c1.09-.78,1.21-1.35,2.71-.85a4.7,4.7,0,0,1,0,5.15,2.66,2.66,0,0,1-2.47.59c0-.15-.64-.24-.76-.27a7.18,7.18,0,0,1-2.11-1.5,2.38,2.38,0,0,0-.69.08,10.53,10.53,0,0,0-.76,1.59c0,1.49.73,2.48-1.1,2.93Z" transform="translate(-9.94 -13.24)"/><path class="cls-3" d="M89.63,62.79c-.07.4-.15.82-.21,1.24a6.55,6.55,0,0,0,.49,2.75,1.15,1.15,0,0,0,0,.19A3.69,3.69,0,0,1,87,65.91c0-1.52,1.5-2.41,2.61-3.12Z" transform="translate(-9.94 -13.24)"/><path class="cls-3" d="M103.42,62.66l.09.08c-.17.31-.34.62-.5.95a10.06,10.06,0,0,0-.28,2.94c-.93-.11-2.51-1-2.51-2.07a4.46,4.46,0,0,1,3.2-1.9Z" transform="translate(-9.94 -13.24)"/><path class="cls-3" d="M104,62.32c0-.11-.06-.22-.08-.31.08-.73.42-1.43.11-2.16a11.82,11.82,0,0,0-1.46-1.8c-.51-.25-.83-.34-.92-.42-.48-.11-.48-.11-.5-.16.67-.93,2.68-2.17,3.33-.65a4.69,4.69,0,0,1,0,2.41c-.06.73-.4,1.52.37,1.91l.41.45a5.26,5.26,0,0,0,3.73-.26c.28-.22.56-.44.84-.64a4.13,4.13,0,0,1,.35,1.93,4.76,4.76,0,0,1-.49,1c-1,.86-2.94-.68-3.55-1.51-.35,0-.42-.09-1.18-.15a4.85,4.85,0,0,0-1,.37Z" transform="translate(-9.94 -13.24)"/><path class="cls-4" d="M103.42,62.66a1.17,1.17,0,0,0,.51-.65c0,.09,0,.2.08.31l-.5.42-.09-.08Z" transform="translate(-9.94 -13.24)"/><path class="cls-3" d="M89.79,62.62c-.06-.69-.12-1.36-.19-2a5.7,5.7,0,0,0-2.37-1.88,5,5,0,0,1-1.4-.1,5,5,0,0,1,.51-1c.72-.82,1.6-1.62,2.5-.59A13.1,13.1,0,0,1,89.6,59a9.61,9.61,0,0,0,.16,1.66c.45.31,1,.56,1.23.72l1.53-.19A4.62,4.62,0,0,0,95,59.23h.16c.54,1.09,1,1.78.51,2.93-.17.1-.34.23-.51.35a5.93,5.93,0,0,1-3.23-.9,3.77,3.77,0,0,0-1.87.61,1.24,1.24,0,0,1-.31.39Z" transform="translate(-9.94 -13.24)"/><path class="cls-3" d="M101.68,53.5c-.42,0-.84,0-1.25,0l-.73,0H97.9l-.84,0c-.42,0-.84,0-1.24,0A60.44,60.44,0,0,0,85.11,55l-2,.2c-.37,0-.74,0-1.1,0A24.46,24.46,0,0,1,76,54c-1.75-.81-1.75-.81-2.69-1.32-1.39-1-2.76-2.06-4.19-3l-.17,0v-.11c-1.14-.64-1.14-.64-1.31-.67v-.11c-2.51-1.16-5.11-2.85-7.86-3.46v-.11a53.64,53.64,0,0,0-11.48-2.19v-.11c-.45,0-.9,0-1.34,0-.22,0-.43,0-.65,0H44.88l-.7,0H42.83a.32.32,0,0,0,0,.09,56.64,56.64,0,0,0-11.51,2.13c-1.54.29-3.06.59-4.58.9q-2.68.39-5.36.81c-3.76.34-3.76.34-7,.56-.08,0-.08,0-1.22,0l-.51,0H9.94a.91.91,0,0,1,0-.17c.33-.12,3.84-1,3.9-1A169.67,169.67,0,0,0,37.58,38,39.39,39.39,0,0,1,48,35.67l3.62,0,2.58.22A35.41,35.41,0,0,1,64.4,39.14c1.65.9,3.28,1.88,4.82,2.93,0,.11,1.24,1,1.32,1.12.77.64.77.64,1.6,1.4a15,15,0,0,0,5.13,3.53,29.69,29.69,0,0,0,3.63.79c.56,0,1.12,0,1.7,0l1.07-.09a44.29,44.29,0,0,1,6.35-1l1.48-.1h3.65l2.91.21a23.06,23.06,0,0,1,4.08.64h0l.5.08v.11a5,5,0,0,1,.93.15c1.79.47,3.56,1,5.31,1.56l4.17,1.77,5.14,2.61a15.45,15.45,0,0,0,2.27,1.26.35.35,0,0,0,0,.12c1.79.75,3.36,2.22,5,3.2,0,.08,0,.16.07.25-.31-.08-.31-.08-5.33-2.28-2.54-.89-2.54-.89-4.82-1.62a71.79,71.79,0,0,0-11.76-2.18l-2-.1Z" transform="translate(-9.94 -13.24)"/><path class="cls-5" d="M102.14,48.57l0-1.4v1.4Z" transform="translate(-9.94 -13.24)"/><path class="cls-6" d="M91.5,47.72v-.08c1.21,0,2.42,0,3.65.08H91.5Z" transform="translate(-9.94 -13.24)"/><path class="cls-7" d="M13.15,47.37c1.14-.07,1.14-.07,1.22,0l-1.22,0Z" transform="translate(-9.94 -13.24)"/><path class="cls-8" d="M89.91,45.15v0c0,.53,0,1.06.07,1.59,0-.53,0-1.05-.07-1.56Z" transform="translate(-9.94 -13.24)"/><path class="cls-9" d="M89.87,43.57c0,.51,0,1,0,1.55v0l0-1.58Z" transform="translate(-9.94 -13.24)"/><path class="cls-10" d="M42.86,42.93a.32.32,0,0,1,0-.09h1.35l-1.32.08Z" transform="translate(-9.94 -13.24)"/><path class="cls-10" d="M47,42.85c.44,0,.89,0,1.34,0v.11L47,42.85Z" transform="translate(-9.94 -13.24)"/><path class="cls-11" d="M71.69,37.82h2.22v.07H71.69v-.07Z" transform="translate(-9.94 -13.24)"/><path class="cls-12" d="M87.12,36.42c0-.05,0-.05,1-.13a5,5,0,0,1-1,.13Z" transform="translate(-9.94 -13.24)"/><path class="cls-13" d="M61.9,26.19v1.45h-.06V26.19Z" transform="translate(-9.94 -13.24)"/><path class="cls-9" d="M129.69,27.55c0-.41,0-.81,0-1.2h.07v1.2Z" transform="translate(-9.94 -13.24)"/><path class="cls-14" d="M87.12,36.42a5,5,0,0,0,1-.13C87.12,36.37,87.12,36.37,87.12,36.42Z" transform="translate(-9.94 -13.24)"/><path class="cls-15" d="M128.92,19.53l-1.23-1.15A13.38,13.38,0,0,0,121.53,16l-8.25-.83h-1.92c-1.08.13-2.15.36-3.2.59v.11c-.39.06-1,.33-1.31.41v.1l-.42.11c-.2-.18-.4-.37-.6-.54l-16.43,0a.05.05,0,0,0-.05,0H87.74c-.2.18-.41.37-.61.57a13.68,13.68,0,0,0-5.08-1.27H80.39c-2,.09-4.07.37-6.09.59,0,0,0,.05,0,.08-.94.06-1.87.14-2.78.21a11.47,11.47,0,0,0-7.79,4.79,12.93,12.93,0,0,0-1.8,5.34v1.45a13.39,13.39,0,0,0,1.41,4.74,11.46,11.46,0,0,0,6.9,5.2l1.48.24h2.22c1-.1,2.1-.19,3.15-.27a.08.08,0,0,1,0-.07l7.42-.7c0,.2,0,.42.08.63.65.67,1.41,1.26,2.08,1.91,1.11.64,1.94,1.87,3.08,2.49a1.4,1.4,0,0,0,.06.28c0,.48,0,1,.05,1.48s0,1,0,1.55,0,1.06.07,1.59c0,.37,0,.74,0,1.11l1.48-.1v-.08a.3.3,0,0,1,0-.11c0-.53,0-1,0-1.56s0-1,0-1.55-.07-1-.1-1.55,0-1,0-1.49a1.91,1.91,0,0,1-.06-.33c-2.36-2-3-2.5-3.86-3.29-.2-.16-1.29-.88-1.29-1.23.36-.05.73-.08,1.11-.11,0-.05,0-.05,1-.13a7.92,7.92,0,0,0,5.28-3.94c1.09-2.41.75-4.71.33-7.24a13.23,13.23,0,0,0-4.94-7.45,3.24,3.24,0,0,0-.39-.07,2.81,2.81,0,0,1,0-.3c5.55,0,11.1,0,16.65.06-.16.21-.16.21-1.23,1a30.7,30.7,0,0,0-2.13,2.42c-1.74,2.89-2.15,5.55-2.29,8.88a9.84,9.84,0,0,0,1,3.07,9.06,9.06,0,0,0,3.5,3.08l1.6.46a10.62,10.62,0,0,1,2,.27,1.48,1.48,0,0,0,0,.2c-1,.9-5,3.92-5,4.4s-.06,1-.07,1.51,0,1-.07,1.5,0,1,0,1.48h0c0,.5,0,1-.06,1.51v1.4l.5.08v.11a5,5,0,0,1,.93.15c0-.36,0-.7,0-1,0-.51,0-1,0-1.51s0-1,0-1.47.07-1,.11-1.49,0-1,.05-1.51c.56-.37.93-1,1.52-1.28l2.66-2.25c.6-.6.92-.78,1-1.57,3.56.27,7.14.64,10.69,1.09.71,0,1.44,0,2.17,0a4.45,4.45,0,0,1,.53,0v-.1l1.29-.17a.11.11,0,0,1,0-.07,14.24,14.24,0,0,0,4-2c.29-.33.45-.41,1.3-1.25l1.4-2c.1-.27.34-.69.78-1.78A11.46,11.46,0,0,0,128.92,19.53Zm-40.19.67c1.09.54,1.74,2.39,2.41,3.28.27.77.53,1.56.75,2.37.25,2.13.25,2.13.34,3.73-.06.06-.06.06-.16.81a5.48,5.48,0,0,1-4.33,3.93L73.18,35.83l-.62,0A9.52,9.52,0,0,1,66,32.64c-.35-.48-.67-1-1-1.44a9.51,9.51,0,0,1-.39-7.71,10.09,10.09,0,0,1,4.51-4.64q.89-.32,1.77-.6l9.56-1c1.89-.05,1.89-.05,1.89,0A10.37,10.37,0,0,1,88.73,20.2Zm40.5,9.62a10.42,10.42,0,0,1-2,3.26.64.64,0,0,0-.06.18.27.27,0,0,0-.13,0,9.39,9.39,0,0,1-4,2.28l-1.89.27-1.42-.08c-12.58-1.27-12.58-1.27-14.09-1.48A6.17,6.17,0,0,1,102,31.51a12.19,12.19,0,0,1-.52-1.69h-.06c0-1.39,0-1.39.06-1.37a19.74,19.74,0,0,1,.64-3.89c.06-.06.14-.4.23-.53a10.72,10.72,0,0,1,5.27-5.78,13.27,13.27,0,0,1,3.81-1c0-.05,0-.05,1.91,0a13.1,13.1,0,0,1,3.42.45,46.81,46.81,0,0,1,7.12.89.17.17,0,0,0,0,.07c1.08.17,2.09,1.18,3,1.76l1.08,1.21a13.35,13.35,0,0,1,1.49,3.12c.08.53.15,1.08.25,1.62,0,.39,0,.79,0,1.2C129.58,28.34,129.4,29.05,129.23,29.82Z" transform="translate(-9.94 -13.24)"/><path class="cls-16" d="M102.3,45.65c0-.5,0-1,0-1.48s0-1,.07-1.5,0-1,.07-1.51,4.06-3.5,5-4.4a1.48,1.48,0,0,1,0-.2,10.62,10.62,0,0,0-2-.27l-1.6-.46a9.06,9.06,0,0,1-3.5-3.08,9.84,9.84,0,0,1-1-3.07c.14-3.33.55-6,2.29-8.88a30.7,30.7,0,0,1,2.13-2.42c1.07-.82,1.07-.82,1.23-1-5.55,0-11.1,0-16.65-.06a2.81,2.81,0,0,0,0,.3,3.24,3.24,0,0,1,.39.07,13.23,13.23,0,0,1,4.94,7.45c.42,2.53.76,4.83-.33,7.24a7.92,7.92,0,0,1-5.28,3.94,5,5,0,0,1-1,.13c-.38,0-.75.06-1.11.11,0,.35,1.09,1.07,1.29,1.23.87.79,1.5,1.24,3.86,3.29a1.91,1.91,0,0,0,.06.33c0,.49,0,1,0,1.49s.06,1,.1,1.55,0,1,0,1.55,0,1,0,1.56a.3.3,0,0,0,0,.11c1.21,0,2.42,0,3.65.08l2.91.21a23.06,23.06,0,0,1,4.08.64c0-.47,0-.93,0-1.4s0-1,.06-1.51Z" transform="translate(-9.94 -13.24)"/><path class="cls-16" d="M129.43,24.73a13.35,13.35,0,0,0-1.49-3.12l-1.08-1.21c-.87-.58-1.88-1.59-3-1.76a.17.17,0,0,1,0-.07,46.81,46.81,0,0,0-7.12-.89,13.1,13.1,0,0,0-3.42-.45h-1.91a13.27,13.27,0,0,0-3.81,1A10.72,10.72,0,0,0,102.34,24c-.09.13-.17.47-.23.53a19.74,19.74,0,0,0-.64,3.89v1.37a12.19,12.19,0,0,0,.52,1.69,6.17,6.17,0,0,0,3.57,2.76c1.51.21,1.51.21,14.09,1.48l1.42.08,1.89-.27a9.39,9.39,0,0,0,4-2.28.27.27,0,0,1,.13,0,.64.64,0,0,1,.06-.18,10.42,10.42,0,0,0,2-3.26c.17-.77.35-1.48.46-2.27,0-.41,0-.81,0-1.2C129.58,25.81,129.51,25.26,129.43,24.73Zm-6.54,2.55c-.16.5-.31,1-.47,1.51a6.3,6.3,0,0,1-4.58,3.32c-.52,0-1,0-1.53,0a6.29,6.29,0,0,1-4.89-4.09,12.5,12.5,0,0,1-.19-2.67,6.31,6.31,0,0,1,2-3.59,6.18,6.18,0,0,1,6.4-.87,9.94,9.94,0,0,1,2,1.54c.11.21.21.29.94,1.6.11.38.22.79.35,1.19A15.8,15.8,0,0,1,122.89,27.28ZM125.12,20l-.14.09c0-.07.07-.15.11-.21h-.21a1,1,0,0,1,0-.13,2.61,2.61,0,0,1,.28.17.52.52,0,0,0,0,.17Z" transform="translate(-9.94 -13.24)"/><path class="cls-16" d="M74.38,35.63v-.11l2.53-.16v-.11q1.26-.09,2.55-.15V35c.82-.06,1.64-.1,2.48-.15v-.11c.83-.06,1.65-.11,2.49-.15v-.11c.76-.07,1.52-.11,2.28-.16v-.09c.52-.11,1.06-.33,1.56-.42V33.7c.57-.28,1.64-.92,1.8-1.55.39-.19.68-1.08.78-1.5H91a14,14,0,0,0,.2-2.17h-.1c0-.64-.07-1.26-.1-1.88h-.11c-.07-.45-.11-.9-.16-1.34H90.6c-.1-.46-.41-1.35-.42-1.55h-.11l-.16-.53h-.09a4.91,4.91,0,0,1-.15-.51h-.11c-.14-.25-.28-.5-.41-.75-.17,0-.4-.51-.46-.67-1-.77-1.7-2.05-3-2.47v-.11l-.27-.09a.66.66,0,0,0,0-.11l-.51-.15v-.11l-.58-.16V18l-.71-.16v-.1c-.35-.07-.67-.11-1-.16v-.11l-1.13-.09v-.11h.88c0-.05,0-.05-1.89,0l-9.56,1q-.89.29-1.77.6a10.09,10.09,0,0,0-4.51,4.64A9.51,9.51,0,0,0,65,31.2c.33.48.65,1,1,1.44a9.52,9.52,0,0,0,6.54,3.16S72.56,35.75,74.38,35.63Zm-2.07-4.31v-.11l-.23-.09a.3.3,0,0,1,0-.11c-.61-.14-1.34-1.16-1.56-1.71h-.11a4.91,4.91,0,0,1-.15-.51h-.1c-.06-.25-.1-.5-.15-.73h-.11c-.05-.31-.08-.62-.11-.93h-.09q0-.68-.06-1.35h.1a7.41,7.41,0,0,1,.16-1.36H70c.06-.26.12-.53.2-.77h.11l.09-.41c.28-.14.33-.54.62-.68a2.4,2.4,0,0,1,1.36-1.24v-.1c.31-.14.31-.14.46-.15V21a1.49,1.49,0,0,1,.58-.16v-.11c.26-.06.54-.1.82-.15v-.09c.56-.05,1.13-.08,1.71-.11v.11c.4,0,.82,0,1.24,0a6.66,6.66,0,0,1,3.65,1.73,7.85,7.85,0,0,1,1.64,3.32h.06v1.4h-.06a9.48,9.48,0,0,1-.33,1.45c-1,2.89-3.39,3.74-6.15,3.84a9.86,9.86,0,0,1-2.65-.31v-.1l-.71-.22v-.09A3,3,0,0,0,72.31,31.32Z" transform="translate(-9.94 -13.24)"/><path class="cls-15" d="M71.22,23.83a14.7,14.7,0,0,0-.46,1.82v1.1a5.93,5.93,0,0,0,3.41,4.93,12.59,12.59,0,0,0,1.81.47c2.76-.1,5.12-.95,6.15-3.84a9.48,9.48,0,0,0,.33-1.45v-1.4a7.85,7.85,0,0,0-1.64-3.32,6.66,6.66,0,0,0-3.65-1.73c-.42,0-.84,0-1.24,0A5.77,5.77,0,0,0,71.22,23.83Zm7.18-.95a4.21,4.21,0,0,1,2,2.85,4.28,4.28,0,0,1,0,1.13A4,4,0,0,1,77.22,30,5.14,5.14,0,0,1,76,30a3.94,3.94,0,0,1-3.16-3.29C72.82,23.43,75.35,21.8,78.4,22.88Z" transform="translate(-9.94 -13.24)"/><path class="cls-15" d="M122.54,24.07c-.73-1.31-.83-1.39-.94-1.6a9.94,9.94,0,0,0-2-1.54,6.18,6.18,0,0,0-6.4.87,6.31,6.31,0,0,0-2,3.59,12.5,12.5,0,0,0,.19,2.67,6.29,6.29,0,0,0,4.89,4.09c.5,0,1,0,1.53,0a6.3,6.3,0,0,0,4.58-3.32c.16-.51.31-1,.47-1.51a15.8,15.8,0,0,0,0-2C122.76,24.86,122.65,24.45,122.54,24.07Zm-2.26,4.24c-.31.34-.63.68-.94,1a6.17,6.17,0,0,1-1.71.68c-.38,0-.77,0-1.15,0a3.87,3.87,0,0,1-3.1-4.71,3.76,3.76,0,0,1,2.9-2.78,7.15,7.15,0,0,1,1.14,0A3.83,3.83,0,0,1,120.28,28.31Z" transform="translate(-9.94 -13.24)"/><path class="cls-17" d="M77.22,30H76A5.14,5.14,0,0,0,77.22,30Z" transform="translate(-9.94 -13.24)"/><path class="cls-18" d="M101.41,29.82h.06V28.45S101.44,28.43,101.41,29.82Z" transform="translate(-9.94 -13.24)"/><path class="cls-19" d="M80.39,25.73v1.13A4.28,4.28,0,0,0,80.39,25.73Z" transform="translate(-9.94 -13.24)"/><path class="cls-20" d="M82.52,26.86v-1.4h-.06v1.4Z" transform="translate(-9.94 -13.24)"/><path class="cls-21" d="M70.69,25.65v1.1h.07v-1.1Z" transform="translate(-9.94 -13.24)"/><path class="cls-22" d="M116.28,22.56l1.14,0A7.15,7.15,0,0,0,116.28,22.56Z" transform="translate(-9.94 -13.24)"/><path class="cls-23" d="M124.92,19.79a1,1,0,0,0,0,.13h.21c0,.06-.07.14-.11.21l.14-.09.1.09a.52.52,0,0,1,0-.17A2.61,2.61,0,0,0,124.92,19.79Z" transform="translate(-9.94 -13.24)"/><path class="cls-20" d="M111.42,17.23h1.91C111.42,17.18,111.42,17.18,111.42,17.23Z" transform="translate(-9.94 -13.24)"/><path class="cls-24" d="M87.74,15.88h1.61C87.74,15.83,87.74,15.83,87.74,15.88Z" transform="translate(-9.94 -13.24)"/><path class="cls-19" d="M82.05,15.1H80.39v.08h1.66Z" transform="translate(-9.94 -13.24)"/><path class="cls-19" d="M113.28,15.1c-.65,0-1.29,0-1.92.06h1.92Z" transform="translate(-9.94 -13.24)"/><path class="cls-1" d="M56.86,65.8H55.47S55.47,65.85,56.86,65.8Z" transform="translate(-9.94 -13.24)"/><path class="cls-1" d="M70,63.55c.12-1.79,1.3-1.73,2.84-1.56,0-.43-.06-.85-.08-1.27-2-.26-3.07-.17-4.3,1.4l-.09,0c0-.45,0-.9.07-1.34h-.06c-.49,0-1,0-1.49,0h0v.36c0,.39,0,.78,0,1.16s0,.56-.06.86a1.24,1.24,0,0,0-.06.29c-.34-.11-1.32-2.27-1.54-2.67h0c-.67,0-1.34,0-2,0,0,1.11-.08,2.21-.11,3.31,0,.34-.06.7-.09,1.06q0,.3-.06.6c.52,0,1.07,0,1.61,0v0c0-1.32,0-1.32.05-1.32,0-.41,0-.81.08-1.22a13.78,13.78,0,0,1,1.58,2.61h2c0-.57,0-1.13.08-1.69a.47.47,0,0,1,.09.06c.47,1.56,1.93,1.71,3.34,1.71.87-.09.87-.09,1-.15a4.4,4.4,0,0,0,1.55.07c0-.46,0-.93.08-1.39-.53,0-1,0-1.56,0C71.64,64.61,70.4,64.78,70,63.55Z" transform="translate(-9.94 -13.24)"/><path class="cls-1" d="M56,62.77h0c0,.39,0,.78-.06,1.18.22,0,.44,0,.65,0a1.69,1.69,0,0,1-.06.55c-1.24.15-1.68-.11-1.74-1.34.41-1.74,1.94-1.35,3.36-1.13,0-.42,0-.84,0-1.25a5,5,0,0,0-4.05.41c-.17.18-.7,1-.89,1,0-.5,0-1,.05-1.46l-1.59,0c0,.92-.08,1.84-.11,2.77A17.28,17.28,0,0,1,50,60.77c-.67,0-1.34,0-2,0,0,.36-.06.72-.08,1.09-.07,1.29-.14,2.59-.2,3.9H49.2a.06.06,0,0,1,0,0c.06-2.09.06-2.09.12-2.67a13.1,13.1,0,0,1,1.57,2.67c.66,0,1.32,0,2-.06l0-1.44a.3.3,0,0,1,.11-.07,2.51,2.51,0,0,0,2.38,1.65h1.39l1.28-.17c0-1,.09-1.93.15-2.89h0Z" transform="translate(-9.94 -13.24)"/><path class="cls-1" d="M47.54,64.4c.06-1.22.13-2.45.19-3.68h0a6.24,6.24,0,0,1-1.63,0h0a.5.5,0,0,0-.13,0H44.11c-.25.36-1.15,1.88-1.53,2,0-.67.07-1.33.1-2h0l-1.71,0h0c0,.37,0,.75,0,1.12,0,1.12,0,1.12-.23,3.82v.06h1.78c0-.77.05-1.55.08-2.33.17,0,1.32,2.38,1.54,2.38,0,0,0,0,1.65,0h.42l1.39,0C47.51,65.27,47.53,64.84,47.54,64.4Zm-1.86.72a21.19,21.19,0,0,1-1.39-2c.52-.69,1-1.37,1.56-2A14.49,14.49,0,0,1,45.68,65.12Z" transform="translate(-9.94 -13.24)"/><path class="cls-1" d="M62.61,65.72c-.57,0-1.15,0-1.71,0h1.71Z" transform="translate(-9.94 -13.24)"/><path class="cls-1" d="M33.17,64.22a31.86,31.86,0,0,1,.11-3.5h0c-.58,0-1.15,0-1.71,0h-.05c0,.56,0,1.14,0,1.71,0,0,0,0-1.73.08l-.06-.08c0-.57.1-1.15.14-1.71-.53,0-1,0-1.58,0H28l-4.5.08c0,.39,0,.79-.05,1.19.48,0,1,0,1.48-.06-.1,2.71-.1,2.71-.19,3.79l.06,0c.58,0,1.15,0,1.73,0,0-.49,0-1,0-1.46,0-.77.06-1.53.11-2.3A6.86,6.86,0,0,1,28,62c0,.2,0,.2,0,.27-.06,1.11-.11,2.23-.15,3.35h1.77c0-.62,0-1.24.05-1.86v-.1h1.75v.1a13.74,13.74,0,0,1-.12,1.92h1.83A4.36,4.36,0,0,1,33.17,64.22Z" transform="translate(-9.94 -13.24)"/><path class="cls-1" d="M40.46,65.72a4.31,4.31,0,0,1,.09-1.16c.05-1.24.09-2.49.15-3.71V60.8l-1.57,0c0,.92-.07,1.84-.1,2.77-.08,0-.08,0-1.56-2.77l-2,0h0c-.09,1.66-.18,3.34-.26,5h1.54a0,0,0,0,1,0,0,.11.11,0,0,1,0-.07c0-.47,0-.94,0-1.39s0-.8.08-1.21c.08,0,1.47,2.52,1.61,2.67.62,0,1.25,0,1.88,0C40.41,65.72,40.42,65.72,40.46,65.72Z" transform="translate(-9.94 -13.24)"/><path class="cls-1" d="M62.83,60.75H61.06c0,1.56,0,1.56-.2,5a0,0,0,0,1,0,0c.56,0,1.14,0,1.71,0,0-.26-.09-1.3.07-1.46,0-.45,0-.88.07-1.32,0-.73.08-1.46.13-2.19Z" transform="translate(-9.94 -13.24)"/><path class="cls-1" d="M35,64.4c.06-2.33.06-2.33.17-3.65H33.46c0,.53-.06,1.06-.07,1.6v0c0,.36,0,.73,0,1.11h-.09c0,.23-.06.48-.08.73q0,.72,0,1.44l1.79.06v-.07C35,64.4,35,64.4,35,64.4Z" transform="translate(-9.94 -13.24)"/><path class="cls-1" d="M64.46,65.65c0-.45,0-.89.05-1.32C64.46,64.33,64.46,64.33,64.46,65.65Z" transform="translate(-9.94 -13.24)"/><path class="cls-1" d="M66.84,61.08c0,.25,0,.5,0,.76v.4C66.81,61.86,66.82,61.47,66.84,61.08Z" transform="translate(-9.94 -13.24)"/><path class="cls-1" d="M33.82,57c.47,0,.93,0,1.4,0l-1.35,0Z" transform="translate(-9.94 -13.24)"/><path class="cls-1" d="M25,57,25,57a21.52,21.52,0,0,1,.14-2.63A8.92,8.92,0,0,1,25.82,57h1.51a12.42,12.42,0,0,1,.9-2.61,1.45,1.45,0,0,1,.06-.3c0,.38,0,.77,0,1.15,0,.61-.05,1.22-.06,1.82h1.53c.45,0,.91,0,1.37-.06.19-.43.39-.87.59-1.29v-.11H33.4v.11c.14.44.28.87.42,1.32h0l1.35,0h.43a.19.19,0,0,1,.08,0h1.2a.09.09,0,0,1,0,0c0-.85,0-1.71.07-2.56.34.21.81,2.11,1,2.56l0,0,1.82-.08a1.13,1.13,0,0,1,0-.18A4.86,4.86,0,0,1,39,54.8c.17-.11.34-.2.51-.29.33-.39.42-.6.5-.63a2.11,2.11,0,0,1,.08-.84v0c-.17-.08-.24-.34-.3-.51a1.94,1.94,0,0,0-1.21-.55.86.86,0,0,0-.23,0H37.08a.12.12,0,0,0-.07,0H35.48c0,1.26-.11,2.53-.2,3.79-.06,0-.06,0-1.46-3.74h-2A43.1,43.1,0,0,1,29.7,55.9V54.82c0-1.17,0-1.17.05-1.17,0-.56.05-1.12.08-1.66H27.64a10.86,10.86,0,0,1-1,2.52c-.14-.86-.28-1.25-.54-2.49H24c-.28,3.39-.28,3.39-.47,4.93l.05,0Zm12.16-3.88c.54,0,1.61-.07,1.08.82a2.6,2.6,0,0,1-.81.2C36.84,54,37.07,53.64,37.12,53.11Zm-4.43.39a1.91,1.91,0,0,1,.32.93H32.3A2.2,2.2,0,0,1,32.69,53.5Z" transform="translate(-9.94 -13.24)"/><path class="cls-1" d="M43.42,56.94v0L41.85,57Z" transform="translate(-9.94 -13.24)"/><path class="cls-1" d="M41.85,57l1.57-.08a16.3,16.3,0,0,1,.11-2.62c.08,0,.08,0,1.59,2.67l0,0,1.91-.08c0-.38.07-.77.11-1.16,0-1.24.1-2.49.16-3.72l-1.59,0c0,1.88,0,1.88-.1,2.76A16.71,16.71,0,0,1,44.11,52q-1,0-2,0h0c-.1,1.68-.19,3.35-.27,5Z" transform="translate(-9.94 -13.24)"/><path class="cls-1" d="M47.29,57l4.17-.08c0-.4,0-.8.07-1.19l-2.45,0c0-.23,0-.45.05-.66a.05.05,0,0,1,0-.05c.65,0,1.32,0,2-.06.1-1,.1-1,.07-1.17h-2a.11.11,0,0,1,0-.07c0-.18,0-.37.08-.56a.19.19,0,0,1,.08,0h1.71l.43,0h.14c0-.38,0-.77,0-1.15l-4.16,0q-.08,2.48-.27,4.92V57Z" transform="translate(-9.94 -13.24)"/><path class="cls-1" d="M40,54.43c-.07.76-.13,1.52-.19,2.3a1.13,1.13,0,0,0,0,.18l1.79.05v-.08c0-.65,0-1.3,0-1.94,0-1,.11-2,.17-2.95H40.08c0,.32,0,.67,0,1v0A7.54,7.54,0,0,1,40,54.43Z" transform="translate(-9.94 -13.24)"/></svg>