<svg id="图层_1" data-name="图层 1" xmlns="http://www.w3.org/2000/svg" viewBox="0 0 347.54 92.98"><defs><style>.cls-1{fill:none;stroke:#fff;stroke-miterlimit:10;stroke-width:3px;}.cls-1,.cls-3{fill-rule:evenodd;}.cls-2,.cls-3{fill:#fff;}</style></defs><title>MT-LOGO-W</title><path class="cls-1" d="M80.16,88.93c-1.56-3.47-4.41-3.07-5.12-1.66a4.88,4.88,0,0,1-5.38,3l-.16.11c-.17-1.58-.74-5.34-2.17-7.16-2.55-2.85-6.45-1-8.72,2s-.53,5.35,1,5.28a4.87,4.87,0,0,1,5.18,3.09c-1,.77-4.3,3.56-5.12,6-1,3.68,2.65,6,6.45,6.21S70.93,103.31,70,102a4.89,4.89,0,0,1-.12-6.16.68.68,0,0,0,0-.14c.88.39,5.18,2.22,7.81,1.8C81.41,96.69,81.72,92.39,80.16,88.93Z" transform="translate(-21.32 -14.41)"/><path class="cls-1" d="M120.45,91.89c-.85-3.7-3.72-3.87-4.69-2.63a4.88,4.88,0,0,1-5.87,1.88l-.17.07c.13-1.57.32-5.38-.72-7.45-1.94-3.29-6.13-2.26-9,.28s-1.58,5.14,0,5.38a4.86,4.86,0,0,1,4.47,4c-1.09.57-4.91,2.65-6.19,4.84-1.71,3.42,1.43,6.38,5.1,7.36s5.16-1.48,4.52-2.91A4.88,4.88,0,0,1,109,96.69s0-.09,0-.14c.79.55,4.64,3.19,7.3,3.3C120.15,99.75,121.3,95.6,120.45,91.89Z" transform="translate(-21.32 -14.41)"/><path class="cls-2" d="M24.14,95.45c-3.12,0-3.75-1.67-1.4-3.72l14.87-13c2.35-2.05,6.24-5.35,8.65-7.33l8.33-6.87a18.47,18.47,0,0,1,10-3.61h8.93a12.52,12.52,0,0,1,9,4.6l1.49,2.07a3.86,3.86,0,0,0,6.65,0l1.5-2.07a12.5,12.5,0,0,1,9-4.6h8.94a18.41,18.41,0,0,1,10,3.61l8.34,6.87c2.4,2,6.27,5.31,8.58,7.4l14.24,12.83c2.32,2.09,1.66,3.79-1.46,3.79h-7.35a17,17,0,0,1-9.87-3.81l-14.28-13c-2.31-2.09-6.15-5.4-8.53-7.34a5.8,5.8,0,0,0-8,.79l-4.32,5.08a14,14,0,0,1-9.34,4.32H86.59a13.74,13.74,0,0,1-9.28-4.37l-4.67-5.63a6,6,0,0,0-8.13-.93l-1.11.84c-2.48,1.89-6.34,5.21-8.58,7.39l-13,12.69a16.11,16.11,0,0,1-9.73,4Z" transform="translate(-21.32 -14.41)"/><path class="cls-3" d="M54.49,23.06a9.35,9.35,0,1,0,9.35,9.34A9.35,9.35,0,0,0,54.49,23.06Zm0,15.81a6.42,6.42,0,1,1,6.41-6.42A6.41,6.41,0,0,1,54.49,38.87Z" transform="translate(-21.32 -14.41)"/><path class="cls-3" d="M75.59,18.65c4.15.07,23.06,0,23.81,0a7.27,7.27,0,0,1,1.29.31,21.19,21.19,0,0,1,3.73-2.41,15.47,15.47,0,0,0-2.9-.85c-.87-.05-22.86,0-27.68,0a12.07,12.07,0,0,0-4.56.9A20.52,20.52,0,0,1,73,19,10,10,0,0,1,75.59,18.65Z" transform="translate(-21.32 -14.41)"/><path class="cls-3" d="M106.46,47.35,103.61,47v.47a2,2,0,0,1-.7,1.52c-.78.75-7.22,6.31-7.22,6.31l-.49,15.21H78.1l-.21-15.1-7.8-6.87a2.59,2.59,0,0,1-.5-1.37l-2.79.31c0,.56,0,.92,0,1a2.79,2.79,0,0,0,.62,1.94l8.13,7,.24,15.68H97.56l.57-15.81s6.55-5.53,7.47-6.41a2.24,2.24,0,0,0,.8-1.76S106.42,48.55,106.46,47.35Z" transform="translate(-21.32 -14.41)"/><path class="cls-3" d="M119.36,22.94a9.35,9.35,0,1,0,9.35,9.35A9.35,9.35,0,0,0,119.36,22.94Zm0,15.81a6.42,6.42,0,1,1,6.42-6.41A6.41,6.41,0,0,1,119.36,38.75Z" transform="translate(-21.32 -14.41)"/><path class="cls-3" d="M82.1,34.24C80.48,21.54,69,14.31,63.46,14.72s-20.64.73-25.89,5a17.29,17.29,0,0,0-6.44,16.73C32,42.22,37.38,51.9,48.2,50.7s25.47-2.79,25.47-2.79S83.73,47,82.1,34.24ZM71.74,45.44s-12.88,1.32-22.37,2.32-14.27-7-15-11.79A13.94,13.94,0,0,1,40,22.1c4.61-3.56,17.86-3.82,22.74-4.16s14.95,5.64,16.38,16.18S71.74,45.44,71.74,45.44Z" transform="translate(-21.32 -14.41)"/><path class="cls-3" d="M99.79,47.61s14.66,1.59,25.47,2.79,16.25-8.48,17.07-14.22a17.31,17.31,0,0,0-6.44-16.73c-5.25-4.3-20.34-4.61-25.89-5S93,21.24,91.35,33.94,99.79,47.61,99.79,47.61ZM94.31,33.82c1.43-10.53,11.49-16.53,16.37-16.18s18.14.6,22.75,4.16a14,14,0,0,1,5.65,13.87c-.72,4.76-5.49,12.78-15,11.79s-22.37-2.32-22.37-2.32S92.89,44.35,94.31,33.82Z" transform="translate(-21.32 -14.41)"/><rect class="cls-2" x="149.46" y="3.3" width="4.66" height="79.75"/><path class="cls-2" d="M215,21.5V50h-6.47V30.74L206,50h-4.59l-2.72-18.77V50h-6.47V21.5h9.58c.28,1.71.58,3.72.88,6.05l1.05,7.23,1.7-13.28Z" transform="translate(-21.32 -14.41)"/><path class="cls-2" d="M231.5,21.5,235.73,50h-7.56l-.4-5.11h-2.64L224.68,50H217L220.8,21.5Zm-3.92,18.29Q227,35,226.45,27.84q-1.12,8.18-1.42,12Z" transform="translate(-21.32 -14.41)"/><path class="cls-2" d="M237.71,21.5H243a40.06,40.06,0,0,1,7.09.4,4.89,4.89,0,0,1,3,2.07q1.16,1.65,1.16,5.3c0,2.21-.27,3.7-.82,4.46a4.34,4.34,0,0,1-3.25,1.37,5.52,5.52,0,0,1,3,1.46,4.37,4.37,0,0,1,.94,1.68,27.15,27.15,0,0,1,.18,4.21V50h-6.87V40.5a6.5,6.5,0,0,0-.36-2.83c-.24-.37-.87-.55-1.89-.55V50h-7.4Zm7.4,4.86v6.33a3.25,3.25,0,0,0,1.75-.34c.33-.23.5-1,.5-2.22V28.56a2.37,2.37,0,0,0-.48-1.77A2.75,2.75,0,0,0,245.11,26.36Z" transform="translate(-21.32 -14.41)"/><path class="cls-2" d="M265.22,21.5V50h-7.4V21.5Z" transform="translate(-21.32 -14.41)"/><path class="cls-2" d="M285.43,21.5V50H279L275.1,37V50h-6.19V21.5h6.19l4.15,12.81V21.5Z" transform="translate(-21.32 -14.41)"/><path class="cls-2" d="M289.12,21.5h12.34v5.69h-4.94v5.4h4.63V38h-4.63v6.26H302V50H289.12Z" transform="translate(-21.32 -14.41)"/><path class="cls-2" d="M207.09,64.7v5.69H202.7V93.15h-7.4V70.39h-4.38V64.7Z" transform="translate(-21.32 -14.41)"/><path class="cls-2" d="M226.51,64.7V93.15h-7.4v-12H216.9v12h-7.4V64.7h7.4V74.87h2.21V64.7Z" transform="translate(-21.32 -14.41)"/><path class="cls-2" d="M237.61,64.7V93.15h-7.4V64.7Z" transform="translate(-21.32 -14.41)"/><path class="cls-2" d="M258.94,64.7l-4.25,12.84,4.65,15.61h-7.65L248.7,81V93.15h-7.4V64.7h7.4v11l3.29-11Z" transform="translate(-21.32 -14.41)"/><path class="cls-2" d="M268.73,64.7V93.15h-7.4V64.7Z" transform="translate(-21.32 -14.41)"/><path class="cls-2" d="M289,64.7V93.15h-6.49l-3.85-12.93V93.15h-6.19V64.7h6.19l4.15,12.81V64.7Z" transform="translate(-21.32 -14.41)"/><path class="cls-2" d="M309.62,75.17h-7.4V72.59a12.87,12.87,0,0,0-.21-3.06.94.94,0,0,0-1-.62.93.93,0,0,0-.93.53,8.38,8.38,0,0,0-.25,2.71V85.81a8,8,0,0,0,.25,2.52,1,1,0,0,0,1,.61,1.09,1.09,0,0,0,1.1-.69,8.13,8.13,0,0,0,.29-2.67V82.2H301V77.88h8.67V93.15H305l-.68-2a5.32,5.32,0,0,1-1.91,2,5.4,5.4,0,0,1-2.72.66,7.09,7.09,0,0,1-3.49-.9,6.67,6.67,0,0,1-2.47-2.24,7.06,7.06,0,0,1-1.06-2.81,33.76,33.76,0,0,1-.21-4.4V74.94a28.47,28.47,0,0,1,.44-5.92,6,6,0,0,1,2.52-3.38,8.83,8.83,0,0,1,5.39-1.54,10,10,0,0,1,5.39,1.33,6.29,6.29,0,0,1,2.8,3.18,16.87,16.87,0,0,1,.65,5.33Z" transform="translate(-21.32 -14.41)"/><path class="cls-2" d="M327.67,64.7V93.15h-7.4V64.7Z" transform="translate(-21.32 -14.41)"/><path class="cls-2" d="M347.89,64.7V93.15H341.4l-3.85-12.93V93.15h-6.19V64.7h6.19l4.15,12.81V64.7Z" transform="translate(-21.32 -14.41)"/><path class="cls-2" d="M368.86,77.09h-7.4v-5a8.75,8.75,0,0,0-.24-2.69,1,1,0,0,0-1.05-.54,1.1,1.1,0,0,0-1.16.65,10.24,10.24,0,0,0-.24,2.82V85.6a9.39,9.39,0,0,0,.24,2.7,1.06,1.06,0,0,0,1.11.64,1,1,0,0,0,1.08-.64,10.24,10.24,0,0,0,.26-3V81.75h7.4v1.11a21.64,21.64,0,0,1-.63,6.26,6.37,6.37,0,0,1-2.76,3.24,9.41,9.41,0,0,1-5.26,1.39,10.82,10.82,0,0,1-5.36-1.18,5.71,5.71,0,0,1-2.8-3.26,21.29,21.29,0,0,1-.68-6.26V74.73a37,37,0,0,1,.21-4.61,6.49,6.49,0,0,1,1.25-3,7,7,0,0,1,2.9-2.24,11.87,11.87,0,0,1,9.66.44,6.07,6.07,0,0,1,2.8,3.15,19.12,19.12,0,0,1,.67,5.87Z" transform="translate(-21.32 -14.41)"/></svg>